# xmcd
#
# Track frame offsets:
#	225
#	10970
#	20825
#	30345
#	42622
#	52072
#	61560
#	71565
#	80930
#	94790
#
# Disc length: 1378 seconds
#
# Revision: 1
# Processed by: cddbd v1.5PL3 Copyright (c) Steve Scherf et al.
# Submitted via: EasyCDDAExtractor 6.5.0.1
#
DISCID=85055f0a
DTITLE=Ike and Tina Turner - The Sessions
DYEAR=1900
DGENRE=R&B
TTITLE0=Loose My Cool
TTITLE1=Goodbye, So Long
TTITLE2=You Can't Miss Nothing
TTITLE3=My Baby Now
TTITLE4=Makin' Plans Together
TTITLE5=Gonna Have Fun
TTITLE6=Give Me Your Love
TTITLE7=I Can't Believe What You Say
TTITLE8=I Need A Man
TTITLE9=Over You
EXTD=
EXTT0=
EXTT1=
EXTT2=
EXTT3=
EXTT4=
EXTT5=
EXTT6=
EXTT7=
EXTT8=
EXTT9=
PLAYORDER=
